# xmcd
#
# Track frame offsets: 
#        150
#        16993
#        34498
#        51801
#        72315
#        86988
#        105736
#        138472
#        153567
#        197912
#
# Disc length: 2918 seconds
#
# Revision: 0
# Processed by: cddbd v1.5.2PL0 Copyright (c) Steve Scherf et al.
# Submitted via: ExactAudioCopyFreeDBPlugin 1.0
#
DISCID=910b640a
DTITLE=The Nite Owls - The Nite Owls
DYEAR=1900
DGENRE=Blues
TTITLE0=Nite Owls - Time Has Come Today
TTITLE1=Nite Owls - Dust My Broom
TTITLE2=Nite Owls - We Gotta Get out of This Place
TTITLE3=Nite Owls - King of the Blues
TTITLE4=Nite Owls - Lawyers, Guns And Money 
TTITLE5=Nite Owls - It's a Damn Shame
TTITLE6=Nite Owls - Lets Get The Show On The Road
TTITLE7=Nite Owls - That's Life
TTITLE8=Nite Owls - When The Music's Over
TTITLE9=Nite Owls - I've Tried
EXTD=
EXTT0=
EXTT1=
EXTT2=
EXTT3=
EXTT4=
EXTT5=
EXTT6=
EXTT7=
EXTT8=
EXTT9=
PLAYORDER=
